<?xml version="1.0" encoding="UTF-8" standalone="no"?>
<!DOCTYPE svg PUBLIC "-//W3C//DTD SVG 1.1//EN"
 "http://www.w3.org/Graphics/SVG/1.1/DTD/svg11.dtd">
<!-- Generated by graphviz version 2.40.1 (20161225.0304)
 -->
<!-- Title: Tree Pages: 1 -->
<svg width="1008pt" height="358pt"
 viewBox="0.00 0.00 1007.84 358.00" xmlns="http://www.w3.org/2000/svg" xmlns:xlink="http://www.w3.org/1999/xlink">
<g id="graph0" class="graph" transform="scale(1 1) rotate(0) translate(4 354)">
<title>Tree</title>
<polygon fill="#ffffff" stroke="transparent" points="-4,4 -4,-354 1003.8408,-354 1003.8408,4 -4,4"/>
<!-- 0 -->
<g id="node1" class="node">
<title>0</title>
<path fill="#e58139" fill-opacity="0.317647" stroke="#000000" d="M564.5352,-350C564.5352,-350 472.4746,-350 472.4746,-350 466.4746,-350 460.4746,-344 460.4746,-338 460.4746,-338 460.4746,-298 460.4746,-298 460.4746,-292 466.4746,-286 472.4746,-286 472.4746,-286 564.5352,-286 564.5352,-286 570.5352,-286 576.5352,-292 576.5352,-298 576.5352,-298 576.5352,-338 576.5352,-338 576.5352,-344 570.5352,-350 564.5352,-350"/>
<text text-anchor="start" x="482.3701" y="-334.8" font-family="Helvetica,sans-Serif" font-size="14.00" fill="#000000">RM ≤ 6.941</text>
<text text-anchor="start" x="472.5161" y="-320.8" font-family="Helvetica,sans-Serif" font-size="14.00" fill="#000000">mse = 88.0115</text>
<text text-anchor="start" x="472.7827" y="-306.8" font-family="Helvetica,sans-Serif" font-size="14.00" fill="#000000">samples = 455</text>
<text text-anchor="start" x="468.4897" y="-292.8" font-family="Helvetica,sans-Serif" font-size="14.00" fill="#000000">value = 22.5989</text>
</g>
<!-- 1 -->
<g id="node2" class="node">
<title>1</title>
<path fill="#e58139" fill-opacity="0.239216" stroke="#000000" d="M431.5352,-250C431.5352,-250 339.4746,-250 339.4746,-250 333.4746,-250 327.4746,-244 327.4746,-238 327.4746,-238 327.4746,-198 327.4746,-198 327.4746,-192 333.4746,-186 339.4746,-186 339.4746,-186 431.5352,-186 431.5352,-186 437.5352,-186 443.5352,-192 443.5352,-198 443.5352,-198 443.5352,-238 443.5352,-238 443.5352,-244 437.5352,-250 431.5352,-250"/>
<text text-anchor="start" x="343.522" y="-234.8" font-family="Helvetica,sans-Serif" font-size="14.00" fill="#000000">LSTAT ≤ 14.4</text>
<text text-anchor="start" x="339" y="-220.8" font-family="Helvetica,sans-Serif" font-size="14.00" fill="#000000">mse = 42.2569</text>
<text text-anchor="start" x="339.7827" y="-206.8" font-family="Helvetica,sans-Serif" font-size="14.00" fill="#000000">samples = 386</text>
<text text-anchor="start" x="335.4897" y="-192.8" font-family="Helvetica,sans-Serif" font-size="14.00" fill="#000000">value = 19.8894</text>
</g>
<!-- 0&#45;&gt;1 -->
<g id="edge1" class="edge">
<title>0&#45;&gt;1</title>
<path fill="none" stroke="#000000" d="M475.6908,-285.8089C463.2322,-276.4416 449.4978,-266.115 436.5845,-256.4057"/>
<polygon fill="#000000" stroke="#000000" points="438.335,-253.3429 428.2388,-250.1308 434.1282,-258.9379 438.335,-253.3429"/>
<text text-anchor="middle" x="431.7446" y="-270.6837" font-family="Helvetica,sans-Serif" font-size="14.00" fill="#000000">True</text>
</g>
<!-- 8 -->
<g id="node9" class="node">
<title>8</title>
<path fill="#e58139" fill-opacity="0.760784" stroke="#000000" d="M687.5352,-250C687.5352,-250 595.4746,-250 595.4746,-250 589.4746,-250 583.4746,-244 583.4746,-238 583.4746,-238 583.4746,-198 583.4746,-198 583.4746,-192 589.4746,-186 595.4746,-186 595.4746,-186 687.5352,-186 687.5352,-186 693.5352,-186 699.5352,-192 699.5352,-198 699.5352,-198 699.5352,-238 699.5352,-238 699.5352,-244 693.5352,-250 687.5352,-250"/>
<text text-anchor="start" x="605.3701" y="-234.8" font-family="Helvetica,sans-Serif" font-size="14.00" fill="#000000">RM ≤ 7.437</text>
<text text-anchor="start" x="595" y="-220.8" font-family="Helvetica,sans-Serif" font-size="14.00" fill="#000000">mse = 73.1491</text>
<text text-anchor="start" x="599.6758" y="-206.8" font-family="Helvetica,sans-Serif" font-size="14.00" fill="#000000">samples = 69</text>
<text text-anchor="start" x="591.4897" y="-192.8" font-family="Helvetica,sans-Serif" font-size="14.00" fill="#000000">value = 37.7565</text>
</g>
<!-- 0&#45;&gt;8 -->
<g id="edge8" class="edge">
<title>0&#45;&gt;8</title>
<path fill="none" stroke="#000000" d="M558.0999,-285.8089C569.512,-276.5308 582.0816,-266.3116 593.9244,-256.6833"/>
<polygon fill="#000000" stroke="#000000" points="596.4327,-259.1548 601.984,-250.1308 592.0169,-253.7234 596.4327,-259.1548"/>
<text text-anchor="middle" x="599.4192" y="-270.7988" font-family="Helvetica,sans-Serif" font-size="14.00" fill="#000000">False</text>
</g>
<!-- 2 -->
<g id="node3" class="node">
<title>2</title>
<path fill="#e58139" fill-opacity="0.341176" stroke="#000000" d="M231.0029,-150C231.0029,-150 140.0068,-150 140.0068,-150 134.0068,-150 128.0068,-144 128.0068,-138 128.0068,-138 128.0068,-98 128.0068,-98 128.0068,-92 134.0068,-86 140.0068,-86 140.0068,-86 231.0029,-86 231.0029,-86 237.0029,-86 243.0029,-92 243.0029,-98 243.0029,-98 243.0029,-138 243.0029,-138 243.0029,-144 237.0029,-150 231.0029,-150"/>
<text text-anchor="start" x="144.6943" y="-134.8" font-family="Helvetica,sans-Serif" font-size="14.00" fill="#000000">DIS ≤ 1.3849</text>
<text text-anchor="start" x="139" y="-120.8" font-family="Helvetica,sans-Serif" font-size="14.00" fill="#000000">mse = 28.1216</text>
<text text-anchor="start" x="139.7827" y="-106.8" font-family="Helvetica,sans-Serif" font-size="14.00" fill="#000000">samples = 226</text>
<text text-anchor="start" x="136.0059" y="-92.8" font-family="Helvetica,sans-Serif" font-size="14.00" fill="#000000">value = 23.4119</text>
</g>
<!-- 1&#45;&gt;2 -->
<g id="edge2" class="edge">
<title>1&#45;&gt;2</title>
<path fill="none" stroke="#000000" d="M327.3879,-188.9415C303.8663,-177.1807 276.5712,-163.5332 252.241,-151.3681"/>
<polygon fill="#000000" stroke="#000000" points="253.585,-148.127 243.0754,-146.7853 250.4544,-154.388 253.585,-148.127"/>
</g>
<!-- 5 -->
<g id="node6" class="node">
<title>5</title>
<path fill="#e58139" fill-opacity="0.090196" stroke="#000000" d="M431.5352,-150C431.5352,-150 339.4746,-150 339.4746,-150 333.4746,-150 327.4746,-144 327.4746,-138 327.4746,-138 327.4746,-98 327.4746,-98 327.4746,-92 333.4746,-86 339.4746,-86 339.4746,-86 431.5352,-86 431.5352,-86 437.5352,-86 443.5352,-92 443.5352,-98 443.5352,-98 443.5352,-138 443.5352,-138 443.5352,-144 437.5352,-150 431.5352,-150"/>
<text text-anchor="start" x="338.4771" y="-134.8" font-family="Helvetica,sans-Serif" font-size="14.00" fill="#000000">CRIM ≤ 6.9924</text>
<text text-anchor="start" x="339" y="-120.8" font-family="Helvetica,sans-Serif" font-size="14.00" fill="#000000">mse = 19.9391</text>
<text text-anchor="start" x="339.7827" y="-106.8" font-family="Helvetica,sans-Serif" font-size="14.00" fill="#000000">samples = 160</text>
<text text-anchor="start" x="335.4897" y="-92.8" font-family="Helvetica,sans-Serif" font-size="14.00" fill="#000000">value = 14.9138</text>
</g>
<!-- 1&#45;&gt;5 -->
<g id="edge5" class="edge">
<title>1&#45;&gt;5</title>
<path fill="none" stroke="#000000" d="M385.5049,-185.8089C385.5049,-177.6906 385.5049,-168.8517 385.5049,-160.3186"/>
<polygon fill="#000000" stroke="#000000" points="389.005,-160.1307 385.5049,-150.1308 382.005,-160.1308 389.005,-160.1307"/>
</g>
<!-- 3 -->
<g id="node4" class="node">
<title>3</title>
<path fill="#e58139" fill-opacity="0.992157" stroke="#000000" d="M97.0146,-50C97.0146,-50 11.9951,-50 11.9951,-50 5.9951,-50 -.0049,-44 -.0049,-38 -.0049,-38 -.0049,-12 -.0049,-12 -.0049,-6 5.9951,0 11.9951,0 11.9951,0 97.0146,0 97.0146,0 103.0146,0 109.0146,-6 109.0146,-12 109.0146,-12 109.0146,-38 109.0146,-38 109.0146,-44 103.0146,-50 97.0146,-50"/>
<text text-anchor="start" x="8" y="-34.8" font-family="Helvetica,sans-Serif" font-size="14.00" fill="#000000">mse = 78.1456</text>
<text text-anchor="start" x="16.5688" y="-20.8" font-family="Helvetica,sans-Serif" font-size="14.00" fill="#000000">samples = 5</text>
<text text-anchor="start" x="12.2759" y="-6.8" font-family="Helvetica,sans-Serif" font-size="14.00" fill="#000000">value = 45.58</text>
</g>
<!-- 2&#45;&gt;3 -->
<g id="edge3" class="edge">
<title>2&#45;&gt;3</title>
<path fill="none" stroke="#000000" d="M140.4221,-85.9947C126.6931,-76.2481 111.6343,-65.5575 98.0115,-55.8864"/>
<polygon fill="#000000" stroke="#000000" points="99.9199,-52.9489 89.7397,-50.014 95.8677,-58.6568 99.9199,-52.9489"/>
</g>
<!-- 4 -->
<g id="node5" class="node">
<title>4</title>
<path fill="#e58139" fill-opacity="0.325490" stroke="#000000" d="M231.5352,-50C231.5352,-50 139.4746,-50 139.4746,-50 133.4746,-50 127.4746,-44 127.4746,-38 127.4746,-38 127.4746,-12 127.4746,-12 127.4746,-6 133.4746,0 139.4746,0 139.4746,0 231.5352,0 231.5352,0 237.5352,0 243.5352,-6 243.5352,-12 243.5352,-12 243.5352,-38 243.5352,-38 243.5352,-44 237.5352,-50 231.5352,-50"/>
<text text-anchor="start" x="139" y="-34.8" font-family="Helvetica,sans-Serif" font-size="14.00" fill="#000000">mse = 15.6201</text>
<text text-anchor="start" x="139.7827" y="-20.8" font-family="Helvetica,sans-Serif" font-size="14.00" fill="#000000">samples = 221</text>
<text text-anchor="start" x="135.4897" y="-6.8" font-family="Helvetica,sans-Serif" font-size="14.00" fill="#000000">value = 22.9104</text>
</g>
<!-- 2&#45;&gt;4 -->
<g id="edge4" class="edge">
<title>2&#45;&gt;4</title>
<path fill="none" stroke="#000000" d="M185.5049,-85.9947C185.5049,-77.6273 185.5049,-68.5643 185.5049,-60.0478"/>
<polygon fill="#000000" stroke="#000000" points="189.005,-60.014 185.5049,-50.014 182.005,-60.0141 189.005,-60.014"/>
</g>
<!-- 6 -->
<g id="node7" class="node">
<title>6</title>
<path fill="#e58139" fill-opacity="0.156863" stroke="#000000" d="M365.5352,-50C365.5352,-50 273.4746,-50 273.4746,-50 267.4746,-50 261.4746,-44 261.4746,-38 261.4746,-38 261.4746,-12 261.4746,-12 261.4746,-6 267.4746,0 273.4746,0 273.4746,0 365.5352,0 365.5352,0 371.5352,0 377.5352,-6 377.5352,-12 377.5352,-12 377.5352,-38 377.5352,-38 377.5352,-44 371.5352,-50 365.5352,-50"/>
<text text-anchor="start" x="273.5161" y="-34.8" font-family="Helvetica,sans-Serif" font-size="14.00" fill="#000000">mse = 11.7967</text>
<text text-anchor="start" x="277.6758" y="-20.8" font-family="Helvetica,sans-Serif" font-size="14.00" fill="#000000">samples = 93</text>
<text text-anchor="start" x="269.4897" y="-6.8" font-family="Helvetica,sans-Serif" font-size="14.00" fill="#000000">value = 17.1484</text>
</g>
<!-- 5&#45;&gt;6 -->
<g id="edge6" class="edge">
<title>5&#45;&gt;6</title>
<path fill="none" stroke="#000000" d="M362.7914,-85.9947C356.4618,-77.0756 349.5712,-67.3661 343.1873,-58.3706"/>
<polygon fill="#000000" stroke="#000000" points="345.8986,-56.1435 337.2568,-50.014 340.19,-60.1947 345.8986,-56.1435"/>
</g>
<!-- 7 -->
<g id="node8" class="node">
<title>7</title>
<path fill="transparent" stroke="#000000" d="M497.4707,-50C497.4707,-50 407.5391,-50 407.5391,-50 401.5391,-50 395.5391,-44 395.5391,-38 395.5391,-38 395.5391,-12 395.5391,-12 395.5391,-6 401.5391,0 407.5391,0 407.5391,0 497.4707,0 497.4707,0 503.4707,0 509.4707,-6 509.4707,-12 509.4707,-12 509.4707,-38 509.4707,-38 509.4707,-44 503.4707,-50 497.4707,-50"/>
<text text-anchor="start" x="406" y="-34.8" font-family="Helvetica,sans-Serif" font-size="14.00" fill="#000000">mse = 14.6885</text>
<text text-anchor="start" x="410.6758" y="-20.8" font-family="Helvetica,sans-Serif" font-size="14.00" fill="#000000">samples = 67</text>
<text text-anchor="start" x="403.522" y="-6.8" font-family="Helvetica,sans-Serif" font-size="14.00" fill="#000000">value = 11.8119</text>
</g>
<!-- 5&#45;&gt;7 -->
<g id="edge7" class="edge">
<title>5&#45;&gt;7</title>
<path fill="none" stroke="#000000" d="M408.5625,-85.9947C414.988,-77.0756 421.9831,-67.3661 428.4637,-58.3706"/>
<polygon fill="#000000" stroke="#000000" points="431.4784,-60.1736 434.484,-50.014 425.7988,-56.0819 431.4784,-60.1736"/>
</g>
<!-- 9 -->
<g id="node10" class="node">
<title>9</title>
<path fill="#e58139" fill-opacity="0.615686" stroke="#000000" d="M687.5352,-150C687.5352,-150 595.4746,-150 595.4746,-150 589.4746,-150 583.4746,-144 583.4746,-138 583.4746,-138 583.4746,-98 583.4746,-98 583.4746,-92 589.4746,-86 595.4746,-86 595.4746,-86 687.5352,-86 687.5352,-86 693.5352,-86 699.5352,-92 699.5352,-98 699.5352,-98 699.5352,-138 699.5352,-138 699.5352,-144 693.5352,-150 687.5352,-150"/>
<text text-anchor="start" x="601.0874" y="-134.8" font-family="Helvetica,sans-Serif" font-size="14.00" fill="#000000">NOX ≤ 0.659</text>
<text text-anchor="start" x="599.4092" y="-120.8" font-family="Helvetica,sans-Serif" font-size="14.00" fill="#000000">mse = 36.811</text>
<text text-anchor="start" x="599.6758" y="-106.8" font-family="Helvetica,sans-Serif" font-size="14.00" fill="#000000">samples = 41</text>
<text text-anchor="start" x="591.4897" y="-92.8" font-family="Helvetica,sans-Serif" font-size="14.00" fill="#000000">value = 32.8146</text>
</g>
<!-- 8&#45;&gt;9 -->
<g id="edge9" class="edge">
<title>8&#45;&gt;9</title>
<path fill="none" stroke="#000000" d="M641.5049,-185.8089C641.5049,-177.6906 641.5049,-168.8517 641.5049,-160.3186"/>
<polygon fill="#000000" stroke="#000000" points="645.005,-160.1307 641.5049,-150.1308 638.005,-160.1308 645.005,-160.1307"/>
</g>
<!-- 12 -->
<g id="node13" class="node">
<title>12</title>
<path fill="#e58139" fill-opacity="0.976471" stroke="#000000" d="M877.5352,-150C877.5352,-150 785.4746,-150 785.4746,-150 779.4746,-150 773.4746,-144 773.4746,-138 773.4746,-138 773.4746,-98 773.4746,-98 773.4746,-92 779.4746,-86 785.4746,-86 785.4746,-86 877.5352,-86 877.5352,-86 883.5352,-86 889.5352,-92 889.5352,-98 889.5352,-98 889.5352,-138 889.5352,-138 889.5352,-144 883.5352,-150 877.5352,-150"/>
<text text-anchor="start" x="784.4771" y="-134.8" font-family="Helvetica,sans-Serif" font-size="14.00" fill="#000000">CRIM ≤ 2.7422</text>
<text text-anchor="start" x="785" y="-120.8" font-family="Helvetica,sans-Serif" font-size="14.00" fill="#000000">mse = 38.2328</text>
<text text-anchor="start" x="789.6758" y="-106.8" font-family="Helvetica,sans-Serif" font-size="14.00" fill="#000000">samples = 28</text>
<text text-anchor="start" x="781.4897" y="-92.8" font-family="Helvetica,sans-Serif" font-size="14.00" fill="#000000">value = 44.9929</text>
</g>
<!-- 8&#45;&gt;12 -->
<g id="edge12" class="edge">
<title>8&#45;&gt;12</title>
<path fill="none" stroke="#000000" d="M699.5435,-187.4533C719.9785,-176.6981 743.1166,-164.5201 764.2475,-153.3986"/>
<polygon fill="#000000" stroke="#000000" points="765.9479,-156.4589 773.1669,-148.7042 762.6876,-150.2645 765.9479,-156.4589"/>
</g>
<!-- 10 -->
<g id="node11" class="node">
<title>10</title>
<path fill="#e58139" fill-opacity="0.647059" stroke="#000000" d="M631.5352,-50C631.5352,-50 539.4746,-50 539.4746,-50 533.4746,-50 527.4746,-44 527.4746,-38 527.4746,-38 527.4746,-12 527.4746,-12 527.4746,-6 533.4746,0 539.4746,0 539.4746,0 631.5352,0 631.5352,0 637.5352,0 643.5352,-6 643.5352,-12 643.5352,-12 643.5352,-38 643.5352,-38 643.5352,-44 637.5352,-50 631.5352,-50"/>
<text text-anchor="start" x="539.5161" y="-34.8" font-family="Helvetica,sans-Serif" font-size="14.00" fill="#000000">mse = 19.1147</text>
<text text-anchor="start" x="543.6758" y="-20.8" font-family="Helvetica,sans-Serif" font-size="14.00" fill="#000000">samples = 39</text>
<text text-anchor="start" x="535.4897" y="-6.8" font-family="Helvetica,sans-Serif" font-size="14.00" fill="#000000">value = 33.7744</text>
</g>
<!-- 9&#45;&gt;10 -->
<g id="edge10" class="edge">
<title>9&#45;&gt;10</title>
<path fill="none" stroke="#000000" d="M622.2329,-85.9947C616.9176,-77.1676 611.1362,-67.5662 605.7667,-58.6491"/>
<polygon fill="#000000" stroke="#000000" points="608.724,-56.7753 600.5671,-50.014 602.7273,-60.3863 608.724,-56.7753"/>
</g>
<!-- 11 -->
<g id="node12" class="node">
<title>11</title>
<path fill="#e58139" fill-opacity="0.066667" stroke="#000000" d="M743.4434,-50C743.4434,-50 673.5664,-50 673.5664,-50 667.5664,-50 661.5664,-44 661.5664,-38 661.5664,-38 661.5664,-12 661.5664,-12 661.5664,-6 667.5664,0 673.5664,0 673.5664,0 743.4434,0 743.4434,0 749.4434,0 755.4434,-6 755.4434,-12 755.4434,-12 755.4434,-38 755.4434,-38 755.4434,-44 749.4434,-50 743.4434,-50"/>
<text text-anchor="start" x="669.7861" y="-34.8" font-family="Helvetica,sans-Serif" font-size="14.00" fill="#000000">mse = 13.69</text>
<text text-anchor="start" x="670.5688" y="-20.8" font-family="Helvetica,sans-Serif" font-size="14.00" fill="#000000">samples = 2</text>
<text text-anchor="start" x="670.1689" y="-6.8" font-family="Helvetica,sans-Serif" font-size="14.00" fill="#000000">value = 14.1</text>
</g>
<!-- 9&#45;&gt;11 -->
<g id="edge11" class="edge">
<title>9&#45;&gt;11</title>
<path fill="none" stroke="#000000" d="M664.5625,-85.9947C670.988,-77.0756 677.9831,-67.3661 684.4637,-58.3706"/>
<polygon fill="#000000" stroke="#000000" points="687.4784,-60.1736 690.484,-50.014 681.7988,-56.0819 687.4784,-60.1736"/>
</g>
<!-- 13 -->
<g id="node14" class="node">
<title>13</title>
<path fill="#e58139" stroke="#000000" d="M877.5352,-50C877.5352,-50 785.4746,-50 785.4746,-50 779.4746,-50 773.4746,-44 773.4746,-38 773.4746,-38 773.4746,-12 773.4746,-12 773.4746,-6 779.4746,0 785.4746,0 785.4746,0 877.5352,0 877.5352,0 883.5352,0 889.5352,-6 889.5352,-12 889.5352,-12 889.5352,-38 889.5352,-38 889.5352,-44 883.5352,-50 877.5352,-50"/>
<text text-anchor="start" x="785" y="-34.8" font-family="Helvetica,sans-Serif" font-size="14.00" fill="#000000">mse = 19.1662</text>
<text text-anchor="start" x="789.6758" y="-20.8" font-family="Helvetica,sans-Serif" font-size="14.00" fill="#000000">samples = 27</text>
<text text-anchor="start" x="781.4897" y="-6.8" font-family="Helvetica,sans-Serif" font-size="14.00" fill="#000000">value = 45.8481</text>
</g>
<!-- 12&#45;&gt;13 -->
<g id="edge13" class="edge">
<title>12&#45;&gt;13</title>
<path fill="none" stroke="#000000" d="M831.5049,-85.9947C831.5049,-77.6273 831.5049,-68.5643 831.5049,-60.0478"/>
<polygon fill="#000000" stroke="#000000" points="835.005,-60.014 831.5049,-50.014 828.005,-60.0141 835.005,-60.014"/>
</g>
<!-- 14 -->
<g id="node15" class="node">
<title>14</title>
<path fill="#e58139" fill-opacity="0.298039" stroke="#000000" d="M987.6773,-50C987.6773,-50 919.3324,-50 919.3324,-50 913.3324,-50 907.3324,-44 907.3324,-38 907.3324,-38 907.3324,-12 907.3324,-12 907.3324,-6 913.3324,0 919.3324,0 919.3324,0 987.6773,0 987.6773,0 993.6773,0 999.6773,-6 999.6773,-12 999.6773,-12 999.6773,-38 999.6773,-38 999.6773,-44 993.6773,-50 987.6773,-50"/>
<text text-anchor="start" x="920.2412" y="-34.8" font-family="Helvetica,sans-Serif" font-size="14.00" fill="#000000">mse = &#45;0.0</text>
<text text-anchor="start" x="915.5688" y="-20.8" font-family="Helvetica,sans-Serif" font-size="14.00" fill="#000000">samples = 1</text>
<text text-anchor="start" x="915.1689" y="-6.8" font-family="Helvetica,sans-Serif" font-size="14.00" fill="#000000">value = 21.9</text>
</g>
<!-- 12&#45;&gt;14 -->
<g id="edge14" class="edge">
<title>12&#45;&gt;14</title>
<path fill="none" stroke="#000000" d="M873.4904,-85.9947C886.1556,-76.3401 900.0359,-65.7592 912.6278,-56.1604"/>
<polygon fill="#000000" stroke="#000000" points="914.8598,-58.86 920.6908,-50.014 910.6161,-53.293 914.8598,-58.86"/>
</g>
</g>
</svg>
