<?xml version="1.0" encoding="UTF-8" standalone="no"?>
<!DOCTYPE svg PUBLIC "-//W3C//DTD SVG 1.1//EN"
 "http://www.w3.org/Graphics/SVG/1.1/DTD/svg11.dtd">
<!-- Generated by graphviz version 2.40.1 (20161225.0304)
 -->
<!-- Title: Tree Pages: 1 -->
<svg width="560pt" height="414pt"
 viewBox="0.00 0.00 559.83 414.00" xmlns="http://www.w3.org/2000/svg" xmlns:xlink="http://www.w3.org/1999/xlink">
<g id="graph0" class="graph" transform="scale(1 1) rotate(0) translate(4 410)">
<title>Tree</title>
<polygon fill="#ffffff" stroke="transparent" points="-4,4 -4,-410 555.8306,-410 555.8306,4 -4,4"/>
<!-- 0 -->
<g id="node1" class="node">
<title>0</title>
<path fill="#39e581" fill-opacity="0.011765" stroke="#000000" d="M264.3958,-406C264.3958,-406 131.3591,-406 131.3591,-406 125.3591,-406 119.3591,-400 119.3591,-394 119.3591,-394 119.3591,-340 119.3591,-340 119.3591,-334 125.3591,-328 131.3591,-328 131.3591,-328 264.3958,-328 264.3958,-328 270.3958,-328 276.3958,-334 276.3958,-340 276.3958,-340 276.3958,-394 276.3958,-394 276.3958,-400 270.3958,-406 264.3958,-406"/>
<text text-anchor="start" x="127.1187" y="-390.8" font-family="Helvetica,sans-Serif" font-size="14.00" fill="#000000">petal width (cm) ≤ 0.75</text>
<text text-anchor="start" x="161.4863" y="-376.8" font-family="Helvetica,sans-Serif" font-size="14.00" fill="#000000">gini = 0.667</text>
<text text-anchor="start" x="152.1553" y="-362.8" font-family="Helvetica,sans-Serif" font-size="14.00" fill="#000000">samples = 135</text>
<text text-anchor="start" x="138.1382" y="-348.8" font-family="Helvetica,sans-Serif" font-size="14.00" fill="#000000">value = [45, 46, 44]</text>
<text text-anchor="start" x="144" y="-334.8" font-family="Helvetica,sans-Serif" font-size="14.00" fill="#000000">class = versicolor</text>
</g>
<!-- 1 -->
<g id="node2" class="node">
<title>1</title>
<path fill="#e58139" stroke="#000000" d="M167.7837,-285C167.7837,-285 71.9712,-285 71.9712,-285 65.9712,-285 59.9712,-279 59.9712,-273 59.9712,-273 59.9712,-233 59.9712,-233 59.9712,-227 65.9712,-221 71.9712,-221 71.9712,-221 167.7837,-221 167.7837,-221 173.7837,-221 179.7837,-227 179.7837,-233 179.7837,-233 179.7837,-273 179.7837,-273 179.7837,-279 173.7837,-285 167.7837,-285"/>
<text text-anchor="start" x="91.2725" y="-269.8" font-family="Helvetica,sans-Serif" font-size="14.00" fill="#000000">gini = 0.0</text>
<text text-anchor="start" x="78.0483" y="-255.8" font-family="Helvetica,sans-Serif" font-size="14.00" fill="#000000">samples = 45</text>
<text text-anchor="start" x="67.9243" y="-241.8" font-family="Helvetica,sans-Serif" font-size="14.00" fill="#000000">value = [45, 0, 0]</text>
<text text-anchor="start" x="75.3276" y="-227.8" font-family="Helvetica,sans-Serif" font-size="14.00" fill="#000000">class = setosa</text>
</g>
<!-- 0&#45;&gt;1 -->
<g id="edge1" class="edge">
<title>0&#45;&gt;1</title>
<path fill="none" stroke="#000000" d="M171.0343,-327.7677C163.4491,-316.6817 155.1823,-304.5994 147.5494,-293.4436"/>
<polygon fill="#000000" stroke="#000000" points="150.3933,-291.4019 141.8578,-285.1252 144.6161,-295.3547 150.3933,-291.4019"/>
<text text-anchor="middle" x="137.2506" y="-305.497" font-family="Helvetica,sans-Serif" font-size="14.00" fill="#000000">True</text>
</g>
<!-- 2 -->
<g id="node3" class="node">
<title>2</title>
<path fill="#39e581" fill-opacity="0.043137" stroke="#000000" d="M343.3958,-292C343.3958,-292 210.3591,-292 210.3591,-292 204.3591,-292 198.3591,-286 198.3591,-280 198.3591,-280 198.3591,-226 198.3591,-226 198.3591,-220 204.3591,-214 210.3591,-214 210.3591,-214 343.3958,-214 343.3958,-214 349.3958,-214 355.3958,-220 355.3958,-226 355.3958,-226 355.3958,-280 355.3958,-280 355.3958,-286 349.3958,-292 343.3958,-292"/>
<text text-anchor="start" x="206.1187" y="-276.8" font-family="Helvetica,sans-Serif" font-size="14.00" fill="#000000">petal width (cm) ≤ 1.75</text>
<text text-anchor="start" x="248.2725" y="-262.8" font-family="Helvetica,sans-Serif" font-size="14.00" fill="#000000">gini = 0.5</text>
<text text-anchor="start" x="235.0483" y="-248.8" font-family="Helvetica,sans-Serif" font-size="14.00" fill="#000000">samples = 90</text>
<text text-anchor="start" x="221.0313" y="-234.8" font-family="Helvetica,sans-Serif" font-size="14.00" fill="#000000">value = [0, 46, 44]</text>
<text text-anchor="start" x="223" y="-220.8" font-family="Helvetica,sans-Serif" font-size="14.00" fill="#000000">class = versicolor</text>
</g>
<!-- 0&#45;&gt;2 -->
<g id="edge2" class="edge">
<title>0&#45;&gt;2</title>
<path fill="none" stroke="#000000" d="M225.0648,-327.7677C231.0853,-319.0798 237.5298,-309.7801 243.7571,-300.794"/>
<polygon fill="#000000" stroke="#000000" points="246.8209,-302.5176 249.64,-292.3046 241.0673,-298.5304 246.8209,-302.5176"/>
<text text-anchor="middle" x="254.1009" y="-312.7034" font-family="Helvetica,sans-Serif" font-size="14.00" fill="#000000">False</text>
</g>
<!-- 3 -->
<g id="node4" class="node">
<title>3</title>
<path fill="#39e581" fill-opacity="0.933333" stroke="#000000" d="M256.3569,-178C256.3569,-178 117.3979,-178 117.3979,-178 111.3979,-178 105.3979,-172 105.3979,-166 105.3979,-166 105.3979,-112 105.3979,-112 105.3979,-106 111.3979,-100 117.3979,-100 117.3979,-100 256.3569,-100 256.3569,-100 262.3569,-100 268.3569,-106 268.3569,-112 268.3569,-112 268.3569,-166 268.3569,-166 268.3569,-172 262.3569,-178 256.3569,-178"/>
<text text-anchor="start" x="113.3877" y="-162.8" font-family="Helvetica,sans-Serif" font-size="14.00" fill="#000000">petal length (cm) ≤ 4.95</text>
<text text-anchor="start" x="151.0024" y="-148.8" font-family="Helvetica,sans-Serif" font-size="14.00" fill="#000000">gini = 0.117</text>
<text text-anchor="start" x="145.0483" y="-134.8" font-family="Helvetica,sans-Serif" font-size="14.00" fill="#000000">samples = 48</text>
<text text-anchor="start" x="134.9243" y="-120.8" font-family="Helvetica,sans-Serif" font-size="14.00" fill="#000000">value = [0, 45, 3]</text>
<text text-anchor="start" x="133" y="-106.8" font-family="Helvetica,sans-Serif" font-size="14.00" fill="#000000">class = versicolor</text>
</g>
<!-- 2&#45;&gt;3 -->
<g id="edge3" class="edge">
<title>2&#45;&gt;3</title>
<path fill="none" stroke="#000000" d="M245.9045,-213.7677C238.9043,-204.9007 231.4009,-195.3964 224.171,-186.2385"/>
<polygon fill="#000000" stroke="#000000" points="226.851,-183.9847 217.9074,-178.3046 221.3568,-188.3223 226.851,-183.9847"/>
</g>
<!-- 6 -->
<g id="node7" class="node">
<title>6</title>
<path fill="#8139e5" fill-opacity="0.976471" stroke="#000000" d="M437.3569,-178C437.3569,-178 298.3979,-178 298.3979,-178 292.3979,-178 286.3979,-172 286.3979,-166 286.3979,-166 286.3979,-112 286.3979,-112 286.3979,-106 292.3979,-100 298.3979,-100 298.3979,-100 437.3569,-100 437.3569,-100 443.3569,-100 449.3569,-106 449.3569,-112 449.3569,-112 449.3569,-166 449.3569,-166 449.3569,-172 443.3569,-178 437.3569,-178"/>
<text text-anchor="start" x="294.3877" y="-162.8" font-family="Helvetica,sans-Serif" font-size="14.00" fill="#000000">petal length (cm) ≤ 4.85</text>
<text text-anchor="start" x="331.4863" y="-148.8" font-family="Helvetica,sans-Serif" font-size="14.00" fill="#000000">gini = 0.046</text>
<text text-anchor="start" x="326.0483" y="-134.8" font-family="Helvetica,sans-Serif" font-size="14.00" fill="#000000">samples = 42</text>
<text text-anchor="start" x="315.9243" y="-120.8" font-family="Helvetica,sans-Serif" font-size="14.00" fill="#000000">value = [0, 1, 41]</text>
<text text-anchor="start" x="318.2759" y="-106.8" font-family="Helvetica,sans-Serif" font-size="14.00" fill="#000000">class = virginica</text>
</g>
<!-- 2&#45;&gt;6 -->
<g id="edge6" class="edge">
<title>2&#45;&gt;6</title>
<path fill="none" stroke="#000000" d="M308.1945,-213.7677C315.2725,-204.9007 322.8593,-195.3964 330.1695,-186.2385"/>
<polygon fill="#000000" stroke="#000000" points="332.9994,-188.3036 336.5027,-178.3046 327.5287,-183.9365 332.9994,-188.3036"/>
</g>
<!-- 4 -->
<g id="node5" class="node">
<title>4</title>
<path fill="#39e581" stroke="#000000" d="M111.6326,-64C111.6326,-64 12.1223,-64 12.1223,-64 6.1223,-64 .1223,-58 .1223,-52 .1223,-52 .1223,-12 .1223,-12 .1223,-6 6.1223,0 12.1223,0 12.1223,0 111.6326,0 111.6326,0 117.6326,0 123.6326,-6 123.6326,-12 123.6326,-12 123.6326,-52 123.6326,-52 123.6326,-58 117.6326,-64 111.6326,-64"/>
<text text-anchor="start" x="33.2725" y="-48.8" font-family="Helvetica,sans-Serif" font-size="14.00" fill="#000000">gini = 0.0</text>
<text text-anchor="start" x="20.0483" y="-34.8" font-family="Helvetica,sans-Serif" font-size="14.00" fill="#000000">samples = 43</text>
<text text-anchor="start" x="9.9243" y="-20.8" font-family="Helvetica,sans-Serif" font-size="14.00" fill="#000000">value = [0, 43, 0]</text>
<text text-anchor="start" x="8" y="-6.8" font-family="Helvetica,sans-Serif" font-size="14.00" fill="#000000">class = versicolor</text>
</g>
<!-- 3&#45;&gt;4 -->
<g id="edge4" class="edge">
<title>3&#45;&gt;4</title>
<path fill="none" stroke="#000000" d="M141.0418,-99.7647C130.0524,-90.3577 118.3214,-80.316 107.3485,-70.9232"/>
<polygon fill="#000000" stroke="#000000" points="109.3869,-68.0609 99.514,-64.2169 104.8348,-73.3787 109.3869,-68.0609"/>
</g>
<!-- 5 -->
<g id="node6" class="node">
<title>5</title>
<path fill="#8139e5" fill-opacity="0.333333" stroke="#000000" d="M244.5807,-64C244.5807,-64 153.1741,-64 153.1741,-64 147.1741,-64 141.1741,-58 141.1741,-52 141.1741,-52 141.1741,-12 141.1741,-12 141.1741,-6 147.1741,0 153.1741,0 153.1741,0 244.5807,0 244.5807,0 250.5807,0 256.5807,-6 256.5807,-12 256.5807,-12 256.5807,-52 256.5807,-52 256.5807,-58 250.5807,-64 244.5807,-64"/>
<text text-anchor="start" x="166.3794" y="-48.8" font-family="Helvetica,sans-Serif" font-size="14.00" fill="#000000">gini = 0.48</text>
<text text-anchor="start" x="160.9414" y="-34.8" font-family="Helvetica,sans-Serif" font-size="14.00" fill="#000000">samples = 5</text>
<text text-anchor="start" x="150.8174" y="-20.8" font-family="Helvetica,sans-Serif" font-size="14.00" fill="#000000">value = [0, 2, 3]</text>
<text text-anchor="start" x="149.2759" y="-6.8" font-family="Helvetica,sans-Serif" font-size="14.00" fill="#000000">class = virginica</text>
</g>
<!-- 3&#45;&gt;5 -->
<g id="edge5" class="edge">
<title>3&#45;&gt;5</title>
<path fill="none" stroke="#000000" d="M191.2777,-99.7647C192.2097,-91.4537 193.1974,-82.6472 194.1413,-74.2305"/>
<polygon fill="#000000" stroke="#000000" points="197.6279,-74.5447 195.2643,-64.2169 190.6715,-73.7645 197.6279,-74.5447"/>
</g>
<!-- 7 -->
<g id="node8" class="node">
<title>7</title>
<path fill="#8139e5" fill-opacity="0.498039" stroke="#000000" d="M401.5807,-64C401.5807,-64 310.1741,-64 310.1741,-64 304.1741,-64 298.1741,-58 298.1741,-52 298.1741,-52 298.1741,-12 298.1741,-12 298.1741,-6 304.1741,0 310.1741,0 310.1741,0 401.5807,0 401.5807,0 407.5807,0 413.5807,-6 413.5807,-12 413.5807,-12 413.5807,-52 413.5807,-52 413.5807,-58 407.5807,-64 401.5807,-64"/>
<text text-anchor="start" x="319.4863" y="-48.8" font-family="Helvetica,sans-Serif" font-size="14.00" fill="#000000">gini = 0.444</text>
<text text-anchor="start" x="317.9414" y="-34.8" font-family="Helvetica,sans-Serif" font-size="14.00" fill="#000000">samples = 3</text>
<text text-anchor="start" x="307.8174" y="-20.8" font-family="Helvetica,sans-Serif" font-size="14.00" fill="#000000">value = [0, 1, 2]</text>
<text text-anchor="start" x="306.2759" y="-6.8" font-family="Helvetica,sans-Serif" font-size="14.00" fill="#000000">class = virginica</text>
</g>
<!-- 6&#45;&gt;7 -->
<g id="edge7" class="edge">
<title>6&#45;&gt;7</title>
<path fill="none" stroke="#000000" d="M363.4772,-99.7647C362.5451,-91.4537 361.5575,-82.6472 360.6136,-74.2305"/>
<polygon fill="#000000" stroke="#000000" points="364.0833,-73.7645 359.4905,-64.2169 357.127,-74.5447 364.0833,-73.7645"/>
</g>
<!-- 8 -->
<g id="node9" class="node">
<title>8</title>
<path fill="#8139e5" stroke="#000000" d="M539.7837,-64C539.7837,-64 443.9712,-64 443.9712,-64 437.9712,-64 431.9712,-58 431.9712,-52 431.9712,-52 431.9712,-12 431.9712,-12 431.9712,-6 437.9712,0 443.9712,0 443.9712,0 539.7837,0 539.7837,0 545.7837,0 551.7837,-6 551.7837,-12 551.7837,-12 551.7837,-52 551.7837,-52 551.7837,-58 545.7837,-64 539.7837,-64"/>
<text text-anchor="start" x="463.2725" y="-48.8" font-family="Helvetica,sans-Serif" font-size="14.00" fill="#000000">gini = 0.0</text>
<text text-anchor="start" x="450.0483" y="-34.8" font-family="Helvetica,sans-Serif" font-size="14.00" fill="#000000">samples = 39</text>
<text text-anchor="start" x="439.9243" y="-20.8" font-family="Helvetica,sans-Serif" font-size="14.00" fill="#000000">value = [0, 0, 39]</text>
<text text-anchor="start" x="442.2759" y="-6.8" font-family="Helvetica,sans-Serif" font-size="14.00" fill="#000000">class = virginica</text>
</g>
<!-- 6&#45;&gt;8 -->
<g id="edge8" class="edge">
<title>6&#45;&gt;8</title>
<path fill="none" stroke="#000000" d="M413.3464,-99.7647C424.2479,-90.3577 435.8851,-80.316 446.7701,-70.9232"/>
<polygon fill="#000000" stroke="#000000" points="449.2576,-73.3998 454.542,-64.2169 444.6844,-68.1001 449.2576,-73.3998"/>
</g>
</g>
</svg>
